<?xml version="1.0" encoding="utf-8"?>
<!-- Generator: Adobe Illustrator 21.0.0, SVG Export Plug-In . SVG Version: 6.00 Build 0)  -->
<svg version="1.1" id="Layer_1" xmlns="http://www.w3.org/2000/svg" xmlns:xlink="http://www.w3.org/1999/xlink" x="0px" y="0px"
	 viewBox="0 0 334 334" style="enable-background:new 0 0 334 334;" xml:space="preserve">
<style type="text/css">
	.st0{fill:#232F39;}
	.st1{fill:#C7EAF7;}
	.st2{fill:#BEDEAA;stroke:#CFE6C1;stroke-width:2;stroke-miterlimit:10;}
	.st3{fill:#84CAF0;}
	.st4{fill:#FFFFFF;}
	.st5{opacity:0.75;fill:none;stroke:#99DBF7;stroke-miterlimit:10;}
	.st6{opacity:0.5;fill:none;stroke:#99DBF7;stroke-miterlimit:10;}
	.st7{opacity:0.25;fill:none;stroke:#99DBF7;stroke-miterlimit:10;}
	.st8{fill:none;stroke:#99DBF7;stroke-miterlimit:10;}
	.st9{fill:#99DBF7;}
</style>
<g>
	<path class="st0" d="M303.3,246.2h-90.2c0-14.7-6.9-27.8-17.6-36.2c-8.1,5.3-17.7,8.5-28.1,8.5c-10.6,0-20.5-3.3-28.6-8.8
		c-11,8.4-18,21.7-18,36.6H30.7L75.8,168c6.8,4,14.8,6.3,23.3,6.3c6.2,0,12.1-1.2,17.5-3.4c-0.1-1.1-0.1-2.2-0.1-3.4
		c0-20,11.5-37.3,28.3-45.6c-2-14.5-10.7-26.9-22.9-33.8l45-78l45.1,78.1c-12,6.9-20.6,19.1-22.6,33.4c17.1,8.2,29,25.7,29,46
		c0,1.2,0,2.4-0.1,3.6c5.2,2,10.9,3.2,16.9,3.2c8.4,0,16.3-2.3,23.1-6.2L303.3,246.2z"/>
	<path class="st1" d="M303.7,246.5c-14.9,0.1-29.9,0.4-45,0.6l-45.6,0.6l-1.5,0l0-1.5c0-6.7-1.5-13.4-4.5-19.5
		c-2.9-6-7.3-11.4-12.5-15.6l1.8,0.1c-4.3,2.9-9,5.1-14,6.5c-4.9,1.5-10.1,2.2-15.3,2.2c-5.2,0-10.3-0.8-15.2-2.4
		c-4.9-1.5-9.6-3.8-13.9-6.7l1.8-0.1c-5.4,4.2-9.8,9.6-12.9,15.7c-3,6.1-4.6,12.9-4.6,19.7l0,0l-0.1,1.5l-1.4,0l-90.1-1.1l0,0
		l-0.6,0l0.3-0.5l44.2-78.8l0,0l0.7-1.3l1.3,0.8c5.9,3.5,12.6,5.5,19.4,6c3.4,0.2,6.9,0.1,10.2-0.5c3.4-0.5,6.7-1.5,9.9-2.8
		l-0.9,1.5c-0.3-5.1,0.1-10.3,1.2-15.3c1.2-5,3.1-9.8,5.6-14.3c5.1-8.9,12.9-16.3,22.1-20.8l-0.8,1.5c-0.9-6.8-3.4-13.3-7.3-18.9
		c-3.8-5.6-9-10.4-14.9-13.8l0,0l-1.3-0.8l0.7-1.3l45.9-77.4l0,0l0.4-0.6l0.4,0.6l46,77.5l0,0l0.8,1.3l-1.3,0.8
		c-5.8,3.4-10.9,8.1-14.6,13.6c-3.8,5.6-6.3,12-7.2,18.7l-0.8-1.6c9.4,4.5,17.4,11.9,22.7,21c2.6,4.5,4.6,9.4,5.8,14.5
		c1.2,5.1,1.6,10.3,1.2,15.6l-0.9-1.5c6.2,2.4,13,3.4,19.7,3c6.7-0.5,13.2-2.5,19-5.8l0,0l1.3-0.7l0.7,1.3l22.2,39.8
		C289.1,220.4,296.4,233.5,303.7,246.5z M302.9,246c-7.7-13-15.4-26-23.1-38.8L257,168.9l2.1,0.5l0,0c-6.2,3.6-13.2,5.7-20.3,6.2
		c-7.1,0.5-14.3-0.5-21-3.1l-1-0.4l0.1-1.1c0.3-4.9,0-9.9-1.2-14.7c-1.1-4.8-3-9.4-5.4-13.7c-5-8.5-12.5-15.5-21.4-19.8l-1-0.5
		l0.2-1.1c1-7.1,3.7-14,7.7-19.9c4-5.9,9.4-11,15.6-14.6l-0.5,2l0,0l-44.1-78.6l0.7,0l0,0l-44,78.5l-0.6-2.1l0,0
		c6.3,3.6,11.8,8.7,15.9,14.7c4.1,6,6.8,13,7.7,20.2l0.1,1.1l-1,0.5c-8.7,4.3-16,11.3-20.9,19.7c-2.4,4.2-4.2,8.8-5.3,13.5
		c-1.1,4.7-1.5,9.6-1.2,14.4l0.1,1.1l-1,0.4c-3.4,1.4-6.9,2.4-10.5,3c-3.6,0.6-7.3,0.7-10.9,0.5c-7.3-0.5-14.5-2.7-20.8-6.4l2.1-0.5
		l0,0L31,246.4l-0.3-0.5l0,0l90.1-1.1l-1.5,1.5l0,0c0-7.3,1.7-14.5,4.9-21.1c3.2-6.5,7.9-12.3,13.7-16.7l0.9-0.7l0.9,0.6
		c8,5.5,17.7,8.5,27.5,8.5c9.7,0.1,19.5-2.8,27.6-8.2l0.9-0.6l0.9,0.7c5.6,4.4,10.2,10.2,13.4,16.6c3.1,6.5,4.8,13.6,4.8,20.8
		l-1.5-1.5l44.6,0.6C272.7,245.6,287.8,245.8,302.9,246z"/>
</g>
<circle class="st2" cx="167.5" cy="167.5" r="29.7"/>
<g>
	<polygon class="st3" points="167,29.2 149.7,59.2 184.3,59.2 	"/>
	<path class="st1" d="M167,31.2c-2.6,4.7-5.3,9.3-8.1,13.9c-2.9,4.6-5.9,9.3-9.1,14.1l-0.1-0.2h34.6l-0.1,0.2
		c-3.1-4.8-6.2-9.5-9.1-14.1C172.3,40.5,169.6,35.9,167,31.2z M167,27.2c3.2,5.3,6.3,10.7,9.2,16.1c2.9,5.4,5.6,10.7,8.2,15.9
		l0.1,0.2h-0.2h-34.6h-0.2l0.1-0.2c2.6-5.2,5.3-10.5,8.2-15.9C160.7,37.9,163.8,32.5,167,27.2z"/>
</g>
<g>
	<path class="st4" d="M153.3,115c-1.2-5.9-5.5-22-18.6-29.9l1.5-3.4h60l1.5,3.4c-13.1,7.9-17.4,24-18.6,29.9H153.3z"/>
	<path class="st0" d="M194.5,84.2c-11.2,7.9-15.7,21.4-17.4,28.3h-21.8c-1.7-6.9-6.2-20.5-17.4-28.3H194.5 M197.9,79.2h-63.3l-3,7
		c16.7,8.3,19.7,31.3,19.7,31.3h30c0,0,3-23,19.7-31.3L197.9,79.2L197.9,79.2z"/>
</g>
<g>
	<path class="st4" d="M77.4,184.4l2.2-3c5,2.8,10.9,4.2,17.5,4.2c7.7,0,14.5-1.9,17.7-3l12.9,22.4c-4.5,4-16.4,15.7-16.7,31
		l-3.7,0.4L77.4,184.4z"/>
	<path class="st0" d="M80.5,184.7c4.9,2.3,10.5,3.4,16.7,3.4c6.7,0,12.7-1.4,16.6-2.5l10.9,18.9c-5.2,4.9-14.6,15.6-15.9,29.2
		L80.5,184.7 M79,178.1l-4.6,6.1l31.6,54.9l7.6-0.9c-1.1-18.6,17.3-32.7,17.3-32.7l-15-26c0,0-8.6,3.6-18.8,3.6
		C91.2,183.1,84.7,181.9,79,178.1L79,178.1z"/>
</g>
<g>
	<path class="st4" d="M222.2,235.8c-0.2-15.3-12-27.1-16.5-31.1l13-22.3c3.3,1.1,10.1,3.1,17.9,3.1c6.6,0,12.4-1.4,17.3-4.1l2.2,3
		l-30.2,51.9L222.2,235.8z"/>
	<path class="st0" d="M253,184.6l-28.4,48.9c-1.2-13.6-10.6-24.4-15.8-29.3l10.9-18.8c3.8,1.2,9.9,2.6,16.7,2.6
		C242.7,188,248.2,186.8,253,184.6 M254.5,178.1c-5.7,3.7-12.1,4.9-18,4.9c-10.3,0-19-3.6-19-3.6l-15.1,25.9
		c0,0,18.4,14.2,17.2,32.7l7.6,0.9l31.8-54.8L254.5,178.1L254.5,178.1z"/>
</g>
<circle class="st0" cx="167.5" cy="167.5" r="5.3"/>
<g>
	<polygon class="st3" points="47.9,237.2 82.5,237.2 65.2,207.2 	"/>
	<path class="st1" d="M49.6,236.2c5.4-0.1,10.7-0.1,16.1,0.1c5.4,0.2,11,0.5,16.8,0.8l-0.1,0.2l-17.3-30h0.2
		c-2.6,5.1-5.1,10.1-7.7,14.9C55,227,52.4,231.6,49.6,236.2z M46.2,238.2c3-5.4,6.1-10.8,9.3-16c3.2-5.2,6.5-10.2,9.6-15.1l0.1-0.2
		l0.1,0.2l17.3,30l0.1,0.2l-0.2,0c-5.8,0.3-11.7,0.6-17.9,0.8C58.6,238.3,52.3,238.3,46.2,238.2z"/>
</g>
<g>
	<polygon class="st3" points="286.1,237.2 268.8,207.2 251.5,237.2 	"/>
	<path class="st1" d="M284.4,236.2c-2.8-4.6-5.4-9.2-8-14c-2.6-4.8-5.1-9.8-7.7-14.9l0.2,0l-17.3,30l-0.1-0.2
		c5.8-0.3,11.4-0.6,16.8-0.8C273.7,236.1,279,236.1,284.4,236.2z M287.8,238.2c-6.2,0.1-12.4,0.1-18.5-0.1
		c-6.1-0.2-12.1-0.5-17.9-0.8l-0.2,0l0.1-0.2l17.3-30l0.1-0.2l0.1,0.2c3.2,4.9,6.4,9.9,9.6,15.1
		C281.7,227.4,284.8,232.8,287.8,238.2z"/>
</g>
<circle class="st5" cx="167.5" cy="167.5" r="41.8"/>
<circle class="st6" cx="167.5" cy="167.5" r="38.4"/>
<circle class="st7" cx="167.5" cy="167.5" r="34.8"/>
<circle class="st8" cx="167.5" cy="167.5" r="44.3"/>
<g>
	<path class="st9" d="M220.6,177.6c2.6,0.9,5.5,1.4,8.3,1.7c2.8,0.3,5.7,0.3,8.6,0.2c0.7,0,1.4-0.1,2.1-0.2c0.7-0.1,1.4-0.1,2.1-0.3
		l2.1-0.3l2.1-0.4c1.4-0.2,2.8-0.7,4.2-1c1.4-0.4,2.7-0.9,4.1-1.3c-1.4,0.5-2.7,1-4.1,1.4c-1.4,0.4-2.7,0.9-4.2,1.1l-2.1,0.5
		l-2.1,0.4c-0.7,0.1-1.4,0.2-2.1,0.3c-0.7,0.1-1.4,0.2-2.1,0.2c-2.9,0.3-5.8,0.3-8.7,0.1c-2.9-0.2-5.7-0.6-8.6-1.5L220.6,177.6z"/>
</g>
<g>
	<path class="st9" d="M203.3,205.6c2.1,2,3.9,4.2,5.6,6.5c1.7,2.3,3.2,4.7,4.5,7.2c1.3,2.5,2.4,5.2,3.3,7.9c0.9,2.7,1.3,5.5,1.7,8.3
		c-0.4-2.8-0.9-5.6-1.9-8.2c-0.9-2.7-2.1-5.3-3.5-7.7c-1.4-2.5-2.9-4.8-4.7-7c-1.7-2.2-3.6-4.3-5.6-6.2L203.3,205.6z"/>
</g>
<g>
	<path class="st9" d="M131.7,208.9c-2.2,1.3-4.3,3-6,4.9c-1.8,1.9-3.3,4.1-4.6,6.4c-0.3,0.6-0.6,1.2-0.9,1.8l-0.4,0.9l-0.4,0.9
		c-0.2,0.6-0.5,1.2-0.7,1.9l-0.6,1.9l-0.3,1l-0.2,1l-0.4,1.9c-0.2,1.3-0.3,2.6-0.5,3.9c0.1-1.3,0.2-2.7,0.4-4l0.3-2l0.2-1l0.3-1
		l0.5-1.9c0.2-0.6,0.4-1.3,0.7-1.9l0.3-0.9l0.4-0.9c0.3-0.6,0.5-1.2,0.8-1.8c1.2-2.4,2.7-4.6,4.5-6.7c1.8-2,3.7-3.9,6.1-5.3
		L131.7,208.9z"/>
</g>
<g>
	<path class="st9" d="M115.3,178.6c-3,0.7-6.1,1.1-9.1,1.4c-3.1,0.3-6.1,0.5-9.2,0.4c-3.1-0.1-6.2-0.3-9.2-0.9c-3-0.6-6-1.6-8.7-3.1
		c2.7,1.4,5.7,2.3,8.7,2.8c3,0.5,6.1,0.7,9.1,0.7c3.1,0,6.1-0.3,9.1-0.7c3-0.4,6-0.9,9-1.6L115.3,178.6z"/>
</g>
<g>
	<path class="st9" d="M183.5,117.4c0.6-2.9,1.4-5.8,2.4-8.5c1-2.8,2.3-5.5,3.8-8c1.5-2.5,3.3-4.9,5.4-7c2.1-2,4.6-3.7,7.3-5
		c-2.6,1.3-5,3-7.1,5.1c-2,2.1-3.7,4.5-5.1,7.1c-1.4,2.6-2.6,5.3-3.5,8c-0.9,2.8-1.7,5.6-2.2,8.4L183.5,117.4z"/>
</g>
<g>
	<path class="st9" d="M149,117.6c-0.5-2.8-1.2-5.5-2-8.2c-0.9-2.7-1.9-5.4-3.1-7.9c-1.3-2.5-2.7-5-4.6-7.2c-1.8-2.2-4-4.1-6.5-5.4
		c2.6,1.2,4.8,3.1,6.7,5.2c1.9,2.1,3.5,4.6,4.8,7.1c1.4,2.5,2.5,5.2,3.4,7.9c0.9,2.7,1.7,5.5,2.3,8.3L149,117.6z"/>
</g>
</svg>
